<svg width="80" height="67" viewBox="0 0 80 67" fill="none" xmlns="http://www.w3.org/2000/svg">
<g clip-path="url(#clip0_37_145)">
<path d="M55.9829 23.1274C55.6047 23.3579 55.1897 23.5098 54.6618 23.468C53.5478 23.3792 52.7897 22.7177 51.8973 22.1382C51.5012 21.8813 51.0717 21.6372 50.6387 21.4187C50.1519 21.1729 49.3159 20.8853 48.7735 20.8213C47.9187 20.7197 47.0306 20.7965 46.2118 21.0662C45.1114 21.429 44.142 22.1903 43.787 23.3237C43.6244 23.8435 43.5962 25.0256 44.4483 24.8131C47.1401 24.2003 48.8402 25.5198 48.8402 27.6868C48.8402 29.8539 47.046 31.5489 43.5046 33.8099L39.3489 36.4481C37.4597 37.6259 36.3739 38.709 36.3739 40.2632C36.3739 41.2985 36.9865 42.0513 37.7455 42.3364H39.2223C39.2245 42.329 39.2271 42.3219 39.2299 42.315C37.6128 40.8564 38.7448 38.8037 40.7649 38.8037C42.785 38.8037 44.0231 40.6883 44.0231 43.1378C44.0231 47.0477 41.0011 51.1454 35.5705 51.1454C30.5172 51.1454 27.5422 47.5649 27.5422 43.3725C27.5422 39.1801 30.418 36.3123 34.0954 36.7297L34.1091 36.7212L34.5275 35.3761L34.5198 35.3607C31.4575 34.3211 29.4323 31.4986 29.4323 28.3935C29.4323 28.263 29.4383 28.1332 29.446 28.0035C29.5837 25.5147 31.0366 23.2597 33.7292 23.2597C34.2041 23.2597 34.6558 23.3289 35.0708 23.4646C36.3885 23.8956 37.3176 25.012 37.3176 26.8393C37.3176 29.3358 35.5234 29.5244 35.5234 31.1256C35.5234 32.3034 36.468 33.1518 37.8841 33.1518C40.1035 33.1518 41.6616 31.0317 41.6616 28.2997C41.6616 25.0222 39.3112 22.8253 35.8879 22.1049C35.8879 22.1049 32.7701 21.3445 29.8036 22.2449C29.7942 22.2475 29.7857 22.2398 29.7891 22.2304C30.4205 20.3476 30.7765 18.1353 30.7765 15.5714C30.7773 4.98451 24.7042 0.0435791 18.6901 0.0435791C15.1709 0.0435791 12.0026 1.73096 10.2862 4.87441C10.2794 4.88721 10.2605 4.88124 10.2614 4.86673C10.3119 3.71791 10.3632 2.69627 10.4881 1.72327C10.5283 1.41004 10.477 1.08485 10.299 0.824534C10.2888 0.810025 10.2794 0.795515 10.2691 0.781859C9.84984 0.193796 9.03786 0.0401651 8.40727 0.395222C6.03551 1.73522 3.23679 2.69541 0.0102674 3.27665C0.00427807 3.2775 0 3.28262 0 3.28945V3.30396C0 4.05931 0.578396 4.69773 1.33305 4.75492C2.7739 4.86502 3.53711 5.64085 3.53711 7.39566V35.2156C3.53711 39.2066 3.00834 40.5039 2.47872 41.3275V41.3378C2.8184 42.2561 3.88364 42.6667 4.75893 42.2246C7.17519 41.0023 9.76428 40.1907 12.7726 39.682C13.6616 39.5318 14.3196 38.7747 14.3264 37.8768L14.3119 37.8623C11.3745 37.7428 10.258 36.9747 10.258 33.2747V27.3693C10.2691 27.3651 10.2682 27.3659 10.2794 27.3617C11.9324 29.4041 14.6952 30.6869 18.2169 30.6869C20.5108 30.6869 22.7132 30.1355 24.616 28.9859C24.6246 28.9807 24.6357 28.9867 24.634 28.997C24.6049 29.2581 24.581 29.5253 24.5664 29.8086C25.0267 32.475 27.2291 34.3578 30.1065 35.0526C30.1219 35.056 30.1211 35.0748 30.1048 35.0739C26.6199 34.8733 21.8276 37.8802 21.8276 43.2317C21.8276 49.4025 27.9187 52.5579 35.2385 52.5579C43.1239 52.5579 49.547 48.8836 49.547 43.3725C49.547 39.8074 46.222 37.1761 41.8105 37.1548L41.8045 37.1317L45.4854 35.4119C48.2995 34.1265 51.277 32.7174 52.7358 30.5794L52.7581 30.5862V56.7683C52.7581 60.7592 52.2293 62.0566 51.6997 62.8802V62.8904C52.0394 63.8088 53.1046 64.2193 53.9799 63.7772C56.3979 62.5542 58.987 61.7433 61.9962 61.2338C62.8843 61.0836 63.5405 60.3257 63.5474 59.4295L63.5328 59.415C60.5955 59.2955 59.4789 58.5273 59.4789 54.8274V48.922C59.4901 48.9177 59.4892 48.9186 59.5003 48.9143C61.1542 50.9567 63.9162 52.2396 67.4387 52.2396C74.1014 52.2396 79.9974 47.5931 79.9974 37.124C79.9974 26.655 73.9243 21.5971 67.911 21.5971C64.3919 21.5971 61.2227 23.2845 59.5063 26.4279C59.4995 26.4407 59.4806 26.4347 59.4815 26.4202C59.5277 25.3602 59.5405 24.4026 59.6817 23.5064C59.834 22.5377 59.3917 21.8881 58.4975 21.7934C58.1579 21.7576 57.7403 21.9095 57.4451 22.0802C56.9061 22.3917 56.4749 22.827 55.9812 23.1274H55.9829ZM16.7444 28.6863C12.794 28.6863 10.2588 25.2159 10.2588 22.0409V10.3949C10.2588 6.80759 12.2635 2.51362 16.2139 2.51362C20.9309 2.51362 23.5842 8.80735 23.5842 16.8644C23.5842 25.746 20.3414 28.6863 16.7444 28.6863ZM68.2344 29.9879C68.9018 29.2726 69.707 28.7879 70.6952 28.6726C71.5457 28.5736 72.2943 28.7759 72.8094 29.5193C73.1055 29.9461 73.1885 30.4334 73.1346 30.9412C73.0208 32.003 72.4766 32.8292 71.6834 33.5077C71.4644 33.6946 71.218 33.8491 71.0836 33.9473C70.3701 34.3194 69.7378 34.5132 69.0481 34.456C67.917 34.3612 67.1658 33.5504 67.1752 32.4178C67.1837 31.4627 67.5979 30.6707 68.2336 29.9887L68.2344 29.9879ZM63.058 27.6945C63.4242 27.4035 63.8469 27.2234 64.3106 27.1483C65.3664 26.9776 66.2708 27.5656 66.4941 28.6086C66.7491 29.7976 66.329 30.7979 65.5281 31.6573C65.2988 31.904 65.0079 32.0935 64.7461 32.3086C64.1677 32.58 63.5833 32.7285 62.963 32.5501C62.1416 32.3137 61.7027 31.7196 61.6103 30.9028C61.4588 29.5611 62.0235 28.5139 63.058 27.6937V27.6945ZM67.4601 41.3958C67.2265 41.995 67.0092 42.6044 66.8466 43.2257C66.5566 44.3361 66.08 45.3253 65.179 46.073C64.563 46.5834 63.8571 46.8616 63.0486 46.8412C61.778 46.8087 60.8154 46.0807 60.391 44.8064C60.2113 44.2661 60.0531 43.7156 59.9367 43.1591C59.6766 41.9147 59.0759 40.8709 58.1818 39.9747C57.7275 39.5198 57.2749 39.0538 56.8839 38.5443C55.6364 36.9183 56.3756 34.5951 58.3247 33.9379C59.4516 33.5581 60.5716 33.6486 61.6693 34.0309C62.5489 34.3373 63.449 34.4918 64.3731 34.555C64.9283 34.5934 65.4854 34.6335 66.0355 34.712C67.1239 34.8682 67.9264 35.4503 68.4056 36.3234C68.8197 37.0327 68.9061 37.7044 68.7136 38.3847C68.557 38.9377 68.3328 39.4746 68.1095 40.0063C67.9119 40.4774 67.6458 40.9213 67.461 41.3958H67.4601ZM73.6744 44.5546C72.6477 45.5216 70.8638 45.7299 69.6428 45.0258C68.3799 44.2969 68.2113 42.8476 69.28 41.8593C69.464 41.6894 69.6762 41.5494 69.8225 41.4368C70.9194 40.8999 71.9735 40.7975 73.049 41.2558C73.5692 41.4777 73.9936 41.826 74.2212 42.3569C74.5497 43.1241 74.341 43.9264 73.6736 44.5546H73.6744ZM74.7611 39.2672C73.8781 39.7204 72.8907 39.9201 71.8477 39.6419C71.1264 39.4498 70.5463 39.064 70.2742 38.3275C70.0774 37.794 70.1485 37.2751 70.3906 36.7758C70.7346 36.0674 71.2984 35.5724 71.994 35.2284C72.9386 34.7615 73.9277 34.5985 74.9545 34.9117C75.7416 35.1516 76.32 35.6244 76.4971 36.4728C76.5998 36.967 76.4826 37.4304 76.2456 37.8657C75.9162 38.4709 75.4156 38.9019 74.7619 39.268L74.7611 39.2672Z" fill="black"/>
<path d="M33.1912 4.23081C33.548 4.18813 33.6576 4.10278 33.6439 3.81857L33.5061 0.8663C33.4933 0.588058 33.3752 0.48137 33.0424 0.463446L33.0347 0.291039C33.6464 0.289332 34.2556 0.234707 34.5808 0.219344C36.0208 0.152771 36.4708 0.675969 36.5008 1.33061C36.5384 2.12522 35.9189 2.68426 34.3797 2.74913L34.4276 3.78187C34.4404 4.06608 34.5577 4.14034 34.917 4.15058L34.9247 4.32213C34.3532 4.32896 33.7688 4.35542 33.1998 4.40236L33.1921 4.22996L33.1912 4.23081ZM34.3703 2.55794C35.3457 2.51271 35.7632 2.06889 35.7307 1.36048C35.7042 0.803994 35.4056 0.387485 34.6826 0.420771C34.5294 0.427599 34.3651 0.455765 34.2745 0.506121L34.3703 2.55794Z" fill="black"/>
<path d="M42.8402 4.1677C42.9189 4.58336 42.9779 4.76088 43.4032 4.87099L43.3749 5.04083C42.794 4.93158 42.1454 4.8249 41.5525 4.74125L41.5807 4.57141C42.0188 4.60981 42.1223 4.51251 42.0564 4.13868L41.9435 3.51562L40.5078 3.2792L40.1963 3.85958C40.0286 4.18136 40.2614 4.32048 40.6686 4.42034L40.6404 4.59104C40.1578 4.49801 39.6205 4.40924 39.1396 4.34352L39.1679 4.17367C39.6068 4.20525 39.7933 4.09515 39.9773 3.75631L41.7245 0.564209L42.1762 0.638464L42.8385 4.16599L42.8402 4.1677ZM40.6147 3.08973L41.8999 3.30054L41.5422 1.3537L40.6156 3.08887L40.6147 3.08973Z" fill="black"/>
<path d="M46.3327 5.76457C46.6775 5.86869 46.8221 5.84906 46.9299 5.58533L48.0619 2.81657C48.1697 2.55283 48.0799 2.43761 47.7607 2.27118L47.8258 2.11157C48.3477 2.34543 48.9133 2.57502 49.4506 2.77218L49.3856 2.93179C49.0407 2.82766 48.8961 2.84729 48.7883 3.11102L47.6572 5.87979C47.5494 6.14352 47.6204 6.25106 47.8301 6.33641L48.002 6.4064C48.5556 6.63173 48.7746 6.57027 49.4591 6.01806L49.6072 6.07866C49.3394 6.39957 49.1545 6.7111 49.0005 7.03458C48.0482 6.62575 47.2114 6.2852 46.2686 5.92332L46.3336 5.76371L46.3327 5.76457Z" fill="black"/>
<path d="M51.943 8.31995C52.2741 8.50772 52.5171 8.59136 52.6951 8.34299L54.367 6.01378C54.5526 5.75517 54.4611 5.5179 54.2155 5.30196L54.3165 5.16199C54.6288 5.4095 55.0181 5.68775 55.3809 5.92246L54.6288 8.97373L57.2239 7.23856C57.5524 7.49803 57.8878 7.73701 58.2241 7.95294L58.124 8.09292C57.845 7.93417 57.6611 7.97428 57.4754 8.23289L55.8035 10.5621C55.629 10.8045 55.682 10.9487 55.9267 11.1638L55.8266 11.3038C55.4005 10.9752 54.9034 10.6193 54.4269 10.3035L54.527 10.1635C54.8384 10.3453 54.9916 10.3487 55.1652 10.1063L56.8371 7.77797L53.7612 9.8298L53.7073 9.79139L54.562 6.15205L52.8902 8.48126C52.7122 8.72878 52.8799 8.93874 53.1973 9.21442L53.0972 9.35439C52.6763 9.02921 52.2442 8.72024 51.8438 8.45822L51.9439 8.31824L51.943 8.31995Z" fill="black"/>
<path d="M58.4748 13.6492C58.3918 13.5554 58.231 13.5545 58.1668 13.6108L58.0479 13.4768L58.77 12.7795L58.8804 12.9041C58.6314 13.4145 58.663 13.9616 58.9967 14.3397C59.2911 14.6734 59.7103 14.7554 60.0243 14.4797C60.3435 14.1989 60.3007 13.75 60.1501 13.1491C59.9713 12.4757 59.8712 11.8296 60.3845 11.3781C60.8628 10.9573 61.5362 11.0367 62.0196 11.5838C62.3276 11.932 62.3114 12.194 62.4517 12.3528C62.5219 12.4321 62.6143 12.4663 62.6921 12.4245L62.8025 12.5491L62.1454 13.1892L62.0393 13.0697C62.2917 12.4936 62.1907 12.0882 61.958 11.8245C61.6902 11.5206 61.3154 11.4788 61.0416 11.7203C60.7619 11.9661 60.7524 12.3553 60.8919 12.9041C61.0399 13.4726 61.3403 14.3133 60.6968 14.8791C60.1381 15.3708 59.4305 15.171 58.995 14.6786C58.6168 14.251 58.6168 13.8097 58.4757 13.6501L58.4748 13.6492Z" fill="black"/>
<path d="M9.89448 52.656C9.62068 52.9795 9.51886 53.1366 9.70196 53.536L9.55138 53.6214C9.26988 53.1024 8.94389 52.5323 8.63587 52.0202L8.78646 51.9348C9.03287 52.2984 9.17319 52.3172 9.42303 52.0313L9.83715 51.5516L9.11587 50.291L8.46817 50.4156C8.11223 50.489 8.15073 50.757 8.3287 51.136L8.17811 51.2213C7.94624 50.7886 7.67587 50.3166 7.42432 49.9026L7.57405 49.8173C7.82646 50.1775 8.03009 50.2526 8.40999 50.1809L11.9959 49.522L12.2226 49.9189L9.89362 52.656H9.89448ZM9.33148 50.2526L9.97662 51.3809L11.266 49.8762L9.33148 50.2526Z" fill="black"/>
<path d="M10.8127 55.0894C11.1044 55.3642 11.3201 55.5016 11.5511 55.3019L13.726 53.4225C13.9519 53.227 13.9245 52.9624 13.7192 52.6748L13.8492 52.5621C14.1171 52.901 14.4045 53.2321 14.6937 53.5343L13.8501 56.7358L15.4732 55.3343C15.7042 55.1346 15.599 54.9016 15.3586 54.5644L15.4895 54.4518C15.8095 54.8512 16.162 55.2566 16.5034 55.6194L16.3725 55.732C16.0815 55.4581 15.8608 55.3147 15.6298 55.5144L12.9568 57.8231L12.8259 57.6729L13.8629 53.6213L11.7076 55.4828C11.4766 55.6825 11.5733 55.9053 11.8309 56.2621L11.7008 56.3747C11.3765 55.971 11.024 55.5648 10.6826 55.202L10.8127 55.0894Z" fill="black"/>
<path d="M14.6123 59.6923C14.8973 59.8733 15.0401 59.9236 15.225 59.7231L17.2322 57.5492C17.4213 57.3443 17.4145 57.1856 17.1877 56.9321L17.305 56.8058C17.7362 57.2385 18.1648 57.5961 18.3942 57.8069C19.4739 58.7996 19.7195 59.8443 18.7518 60.8924C17.672 62.0625 16.5032 61.6648 15.9171 61.1254C15.6682 60.8966 15.5013 60.6175 15.1736 60.3162C14.9734 60.1319 14.7749 59.9945 14.4951 59.8187L14.6123 59.6923ZM18.0639 60.3854C18.8425 59.5421 19.0615 58.698 18.3334 58.0297C18.2265 57.9307 18.1246 57.865 18.0339 57.8351L15.8016 60.2531C15.6083 60.463 15.7589 60.7003 15.9497 60.8753C16.6342 61.5035 17.4068 61.0972 18.0639 60.3854Z" fill="black"/>
<path d="M22.5344 64.4737C22.8835 64.559 23.0161 64.5189 23.1042 64.2475L24.0214 61.4361C24.1078 61.1715 24.0351 61.0298 23.7297 60.8958L23.7836 60.7319C24.356 60.9453 24.9464 61.1092 25.2561 61.2099C26.6268 61.6554 26.8629 62.3032 26.6593 62.9271C26.4129 63.6834 25.6351 63.9889 24.1712 63.5067L23.8503 64.4899C23.7613 64.7605 23.8443 64.8714 24.1772 65.0071L24.1233 65.171C23.5859 64.9756 23.0298 64.7946 22.4805 64.6376L22.5344 64.4737ZM24.2302 63.3232C25.1594 63.6253 25.7078 63.3573 25.9277 62.6822C26.1006 62.153 25.9688 61.6571 25.28 61.4335C25.1346 61.3866 24.9703 61.3541 24.8676 61.3695L24.2302 63.3232Z" fill="black"/>
<path d="M30.7099 66.0705C30.7801 66.4879 30.834 66.6671 31.2584 66.7866L31.2267 66.9564C30.6483 66.8344 30.0015 66.714 29.4111 66.6176L29.4428 66.4486C29.88 66.4964 29.9852 66.4017 29.9279 66.027L29.8287 65.4014L28.3981 65.1342L28.0738 65.7078C27.8992 66.0261 28.1294 66.1704 28.5341 66.2796L28.5024 66.4486C28.0216 66.3453 27.486 66.2455 27.0068 66.1695L27.0385 66.0005C27.4774 66.0423 27.6657 65.9356 27.8573 65.6002L29.6729 62.4465L30.1238 62.531L30.7099 66.0731V66.0705ZM28.5076 64.9439L29.7876 65.1829L29.4719 63.2292L28.5076 64.9439Z" fill="black"/>
<path d="M36.9456 62.6207C37.4111 62.6318 37.8825 62.6233 38.3471 62.5951L38.3506 62.7675C37.9989 62.8076 37.8201 62.8503 37.7268 63.1772L36.6316 66.8029L36.339 66.808L35.2147 63.8591L34.3266 66.8447L34.034 66.8498L32.665 63.2694C32.5598 62.9792 32.4922 62.9075 32.1328 62.881L32.1294 62.7086C32.7138 62.718 33.2853 62.7069 33.8766 62.6762L33.88 62.8486C33.5155 62.8819 33.3709 62.9638 33.4753 63.254L34.4139 65.8282L35.0676 63.4699L34.9769 63.2267C34.8648 62.9365 34.7775 62.8588 34.4447 62.8383L34.4413 62.6659C35.0128 62.6753 35.604 62.6642 36.1884 62.6335L36.1919 62.8059C35.8334 62.8392 35.6759 62.9211 35.7812 63.2113L36.7189 65.7855L37.4616 63.1797C37.5548 62.8537 37.3084 62.811 36.9491 62.7914L36.9456 62.619V62.6207Z" fill="black"/>
<path d="M40.6711 66.2131C40.5462 66.2311 40.458 66.3642 40.47 66.4496L40.2921 66.4752L40.103 65.4911L40.2672 65.4672C40.559 65.9545 41.0347 66.2276 41.5353 66.156C41.9759 66.0928 42.2745 65.7889 42.2146 65.375C42.1539 64.9551 41.7543 64.7443 41.1673 64.5411C40.5042 64.3218 39.9087 64.0521 39.8112 63.3761C39.7205 62.7462 40.156 62.2281 40.879 62.124C41.3393 62.0574 41.5498 62.2153 41.7611 62.1846C41.8664 62.1692 41.9451 62.1112 41.9528 62.0233L42.1171 61.9994L42.2942 62.8981L42.1359 62.9203C41.7911 62.3937 41.3958 62.2563 41.0467 62.3067C40.6454 62.3638 40.405 62.6532 40.4572 63.0142C40.5102 63.3821 40.8311 63.604 41.3676 63.7875C41.9254 63.9753 42.7947 64.1852 42.9171 65.0319C43.0232 65.7668 42.4687 66.249 41.8176 66.342C41.2521 66.4231 40.8807 66.1816 40.6711 66.2123V66.2131Z" fill="black"/>
</g>
<defs>
<clipPath id="clip0_37_145">
<rect width="80" height="67" fill="white"/>
</clipPath>
</defs>
</svg>
