<svg width="282" height="45" viewBox="0 0 282 45" fill="none" xmlns="http://www.w3.org/2000/svg">
<path d="M29.7363 22.5404C29.7363 30.9554 24.9965 34.6893 19.6407 34.6893C16.797 34.6893 14.5692 33.6498 13.2416 31.9949V36.7694C13.2416 39.7473 14.1417 40.3627 16.5117 40.4572C16.5117 41.1794 15.9894 41.797 15.2765 41.9174C12.849 42.3269 10.7622 42.9805 8.81419 43.9672C8.11483 44.3215 7.26319 43.9964 6.99134 43.2618L6.9857 43.246C7.41208 42.5845 7.83847 41.5439 7.83847 38.3298V15.9693C7.83847 14.5664 7.23048 13.942 6.0833 13.8487C5.47192 13.7992 4.99365 13.3042 4.99365 12.6933V12.6607C7.71439 12.1713 10.0561 11.3478 12.0211 10.189C12.2828 10.0349 12.6167 10.0484 12.8547 10.2374C12.8626 10.2442 12.8705 10.2498 12.8784 10.2565C13.2743 10.5805 13.4627 11.0913 13.4029 11.5987C13.316 12.3355 13.2788 13.114 13.2405 13.9837C14.6144 11.431 17.1738 10.0608 20.0186 10.0608C24.8532 10.0608 29.7352 14.032 29.7352 22.5404H29.7363ZM23.9542 23.5799C23.9542 17.1044 21.8212 12.0453 18.0299 12.0453C14.8546 12.0453 13.2427 15.4957 13.2427 18.3802V27.7402C13.2427 30.2928 15.281 33.0817 18.4563 33.0817C21.3474 33.0817 23.9542 30.718 23.9542 23.5799Z" fill="black"/>
<path d="M51.775 29.6785C51.775 31.5224 52.5804 32.7982 54.3818 32.5619C54.3818 33.4102 53.837 34.1707 53.0259 34.4272C52.4574 34.6072 51.846 34.6893 51.2065 34.6893C48.6944 34.6893 46.9877 33.4608 46.9877 30.8125V30.3873H46.6087C45.8981 31.9004 43.3387 34.6893 38.9304 34.6893C35.8025 34.6893 32.3418 33.1773 32.3418 28.7808C32.3418 24.8095 35.3276 21.9734 46.3719 20.224V17.9549C46.3719 13.2749 45.5665 11.3365 42.4848 11.3365C36.6079 11.3365 41.1582 18.6637 36.371 18.6637C34.5222 18.6637 33.7168 17.5285 33.7168 16.111C33.7168 12.7552 37.746 10.0608 44.0019 10.0608C48.9313 10.0608 51.775 11.6684 51.775 17.5297V29.6785ZM46.3719 27.0314V21.5009C39.0252 22.5888 37.887 25.6612 37.887 27.883C37.887 30.7664 39.6885 32.2795 41.5846 32.2795C44.2388 32.2795 46.3719 29.9159 46.3719 27.0325V27.0314Z" fill="black"/>
<path d="M56.6357 34.1696C56.6357 33.5149 57.0542 32.9243 57.6814 32.7308C58.7485 32.4011 59.5268 31.6868 59.5268 30.0566V8.31152C59.5268 6.15377 58.9109 5.22564 57.7942 4.92864C57.1896 4.76777 56.7779 4.20864 56.7779 3.58427C59.4321 3.25352 61.9441 2.21289 64.1245 0.889893C64.5983 1.07889 64.9773 1.45689 65.2142 1.97777C64.9299 3.58427 64.9299 5.38089 64.9299 8.31264V30.0578C64.9299 31.6991 65.6913 32.4113 66.7799 32.7386C67.4059 32.9265 67.8221 33.5183 67.8221 34.1708C64.1257 33.9818 60.3333 33.9818 56.6357 34.1708V34.1696Z" fill="black"/>
<path d="M69.5264 34.1696C69.5264 33.5159 69.9426 32.9253 70.5686 32.7296C71.6211 32.3988 72.3701 31.6844 72.3701 30.0566V15.9693C72.3701 14.6092 71.7395 13.9634 70.589 13.8554C69.9674 13.7969 69.479 13.3031 69.479 12.6798V12.6607C72.3701 12.1409 74.6452 11.2893 76.6835 9.96631C77.2047 10.1553 77.5363 10.5333 77.7732 11.0542L76.873 15.5924H77.1099C77.6784 13.8903 79.622 10.0619 84.6935 10.0619C87.3477 10.0619 90.3808 11.1014 91.4242 15.0727C92.0875 13.2761 94.1258 10.0619 98.7709 10.0619C101.994 10.0619 105.833 11.6223 105.833 18.1923V30.0577C105.833 31.6991 106.595 32.4112 107.683 32.7386C108.309 32.9264 108.726 33.5182 108.726 34.1707C105.029 34.0289 101.331 34.0289 97.5865 34.1707C97.5865 33.5272 97.9982 32.9399 98.6186 32.7611C99.7117 32.4449 100.479 31.7047 100.479 30.0577V18.2396C100.479 14.7408 99.0089 12.8508 96.4021 12.8508C93.3215 12.8508 91.757 15.5452 91.757 18.2396V30.0577C91.757 31.7114 92.5308 32.4224 93.6543 32.7464C94.2803 32.9264 94.6954 33.5204 94.6954 34.1707C90.9516 34.0289 87.254 34.0289 83.5564 34.1707C83.5564 33.5283 83.967 32.9411 84.5852 32.7599C85.6635 32.4427 86.4001 31.7024 86.4001 30.0577V18.2396C86.4001 14.7408 84.8356 12.8508 82.2288 12.8508C79.1956 12.8508 77.7258 15.4507 77.7258 18.2396V30.0577C77.7258 31.7036 78.4917 32.4438 79.5848 32.7611C80.2052 32.9411 80.6169 33.5272 80.6169 34.1707C76.9204 34.0289 73.2228 34.0289 69.5264 34.1707V34.1696Z" fill="black"/>
<path d="M114.296 32.7983C113.727 32.7983 113.312 33.0706 113.071 33.4216C112.758 33.8761 112.261 34.1697 111.707 34.1697H111.594L111.215 27.5986H112.352C113.347 30.9072 117.092 33.2236 119.889 33.2236C121.974 33.2236 123.49 31.8522 123.49 29.8677C123.49 27.5041 121.215 26.1338 118.04 24.2899C114.864 22.4933 111.356 20.4604 111.356 16.3947C111.356 12.7553 114.153 10.0598 118.182 10.0598C121.12 10.0598 122.448 11.4312 123.774 11.4312C124.485 11.4312 124.912 11.1004 125.054 10.4862H126.191L126.617 16.8211C125.922 16.8211 125.292 16.4239 124.981 15.8029C123.6 13.0343 121.43 11.4796 119.223 11.4796C117.185 11.4796 115.763 12.8509 115.763 14.7409C115.763 16.8211 117.375 18.0507 120.077 19.6099C122.826 21.1703 128.087 23.6273 128.087 28.4018C128.087 32.1841 124.817 34.7367 120.93 34.7367C117.47 34.7367 115.811 32.7983 114.294 32.7983H114.296Z" fill="black"/>
<path d="M137.719 27.2812C137.719 22.9229 141.671 20.4974 144.482 20.7247C141.823 20.1183 139.846 18.2238 139.846 15.6082C139.846 12.4256 142.734 10.0754 146.953 10.0754C150.79 10.0754 153.678 12.0082 153.678 15.2673C153.678 17.4656 152.423 19.1711 150.638 19.1711C149.497 19.1711 148.737 18.4893 148.737 17.5409C148.737 16.2528 150.181 16.1009 150.181 14.0928C150.181 12.0847 148.889 11.2128 147.293 11.2128C145.014 11.2128 143.836 13.2209 143.836 15.3438C143.836 17.8447 145.469 20.1194 147.94 20.9531L147.598 22.0522C144.634 21.7113 142.315 24.0986 142.315 27.3959C142.315 30.6933 144.709 33.6487 148.776 33.6487C153.145 33.6487 155.577 30.3513 155.577 27.2058C155.577 25.2348 154.514 23.7194 152.955 23.7194C151.32 23.7194 150.409 25.3867 151.739 26.5623H150.523C149.915 26.3351 149.421 25.7287 149.421 24.8939C149.421 23.6429 150.295 22.7722 151.814 21.8238L155.158 19.7021C158.008 17.8829 159.451 16.5948 159.451 14.7746C159.451 12.9543 158.083 11.9699 155.917 12.4627C155.612 12.5381 155.423 12.3873 155.309 12.0082C155.195 11.6291 155.271 11.4389 155.612 11.2882C156.487 10.9091 157.475 10.6818 158.5 10.6818C161.046 10.6818 163.326 12.1601 163.326 14.7746C163.326 17.9201 159.906 19.5502 156.752 20.9902L153.749 22.3919C157.321 22.3919 160.019 24.5148 160.019 27.3948C160.019 31.8284 154.851 34.7849 148.506 34.7849C142.616 34.7849 137.714 32.2458 137.714 27.2812H137.719Z" fill="black"/>
<path d="M196.995 22.5404C196.995 30.9554 192.255 34.6893 186.9 34.6893C184.056 34.6893 181.828 33.6498 180.501 31.9949V36.7694C180.501 39.7473 181.402 40.3627 183.771 40.4572C183.771 41.1794 183.248 41.797 182.535 41.9174C180.108 42.3269 178.021 42.9805 176.072 43.9672C175.373 44.3215 174.521 43.9964 174.249 43.2618L174.244 43.246C174.67 42.5845 175.096 41.5439 175.096 38.3298V15.9693C175.096 14.5664 174.489 13.942 173.341 13.8487C172.73 13.7992 172.251 13.3042 172.251 12.6933V12.6607C174.972 12.1713 177.314 11.3478 179.279 10.189C179.541 10.0349 179.876 10.0484 180.114 10.2374C180.122 10.2442 180.129 10.2498 180.137 10.2565C180.533 10.5805 180.72 11.0913 180.661 11.5987C180.574 12.3355 180.537 13.114 180.498 13.9837C181.873 11.431 184.433 10.0608 187.276 10.0608C192.111 10.0608 196.993 14.032 196.993 22.5404H196.995ZM191.213 23.5799C191.213 17.1044 189.08 12.0453 185.289 12.0453C182.114 12.0453 180.502 15.4957 180.502 18.3802V27.7402C180.502 30.2928 182.54 33.0817 185.715 33.0817C188.606 33.0817 191.213 30.718 191.213 23.5799Z" fill="black"/>
<path d="M218.918 29.6785C218.918 31.5224 219.723 32.7982 221.525 32.5619C221.525 33.4102 220.98 34.1707 220.169 34.4272C219.6 34.6072 218.988 34.6893 218.349 34.6893C215.837 34.6893 214.132 33.4608 214.132 30.8125V30.3873H213.753C213.042 31.9004 210.483 34.6893 206.074 34.6893C202.947 34.6893 199.486 33.1773 199.486 28.7808C199.486 24.8095 202.472 21.9734 213.516 20.224V17.9549C213.516 13.2749 212.709 11.3365 209.629 11.3365C203.752 11.3365 208.301 18.6637 203.514 18.6637C201.665 18.6637 200.86 17.5285 200.86 16.111C200.86 12.7552 204.888 10.0608 211.145 10.0608C216.074 10.0608 218.918 11.6684 218.918 17.5297V29.6785ZM213.515 27.0314V21.5009C206.168 22.5888 205.03 25.6612 205.03 27.883C205.03 30.7664 206.83 32.2795 208.726 32.2795C211.381 32.2795 213.514 29.9159 213.514 27.0325L213.515 27.0314Z" fill="black"/>
<path d="M249.516 10.4861H258.948C258.948 11.151 258.448 11.7056 257.787 11.7888C255.836 12.033 254.965 12.9397 254.161 15.5441L248.236 34.1696H245.203L239.705 17.3407L234.349 34.1696H231.316L225.202 15.4968C224.384 12.9712 223.758 12.0746 222.272 11.8091C221.633 11.6955 221.173 11.133 221.173 10.4861H232.643C232.643 11.1285 232.192 11.6876 231.561 11.8181C230.193 12.0993 229.916 13.0252 230.653 15.498L234.586 28.4973L238.852 14.7408C238.17 12.8126 237.609 12.0633 236.343 11.817C235.716 11.6943 235.25 11.169 235.25 10.5311V10.4861H246.672C246.672 11.1273 246.221 11.6921 245.588 11.8091C244.12 12.0802 243.796 12.9993 244.54 15.4968L248.474 28.4962L252.456 15.5441C253.254 12.9555 252.539 12.0442 250.678 11.7933C250.017 11.7045 249.517 11.151 249.517 10.4861H249.516Z" fill="black"/>
<path d="M263.213 32.7983C262.645 32.7983 262.23 33.0706 261.988 33.4216C261.676 33.8761 261.178 34.1697 260.625 34.1697H260.512L260.133 27.5986H261.271C262.266 30.9072 266.011 33.2236 268.807 33.2236C270.893 33.2236 272.41 31.8522 272.41 29.8677C272.41 27.5041 270.135 26.1338 266.959 24.2899C263.784 22.4933 260.276 20.4604 260.276 16.3947C260.276 12.7553 263.072 10.0598 267.102 10.0598C270.04 10.0598 271.368 11.4312 272.694 11.4312C273.406 11.4312 273.831 11.1004 273.975 10.4862H275.112L275.538 16.8211C274.842 16.8211 274.213 16.4239 273.902 15.8029C272.521 13.0343 270.351 11.4796 268.144 11.4796C266.106 11.4796 264.684 12.8509 264.684 14.7409C264.684 16.8211 266.295 18.0507 268.998 19.6099C271.747 21.1703 277.008 23.6273 277.008 28.4018C277.008 32.1841 273.738 34.7367 269.851 34.7367C266.391 34.7367 264.732 32.7983 263.215 32.7983H263.213Z" fill="black"/>
</svg>
